<?xml version="1.0" encoding="utf-8"?>
<!-- Generator: Adobe Illustrator 24.1.1, SVG Export Plug-In . SVG Version: 6.00 Build 0)  -->
<svg version="1.1" id="Layer_1" xmlns="http://www.w3.org/2000/svg" xmlns:xlink="http://www.w3.org/1999/xlink" x="0px" y="0px"
	 viewBox="0 0 1366 1055" style="enable-background:new 0 0 1366 1055;" xml:space="preserve">
<style type="text/css">
	.st0{fill:#BFA10A;}
</style>
<g>
	<polygon class="st0" points="74.14,222.4 90.64,341.21 240.98,314.97 241.42,314.38 144.51,243.86 254.03,224.74 346.96,296.46 
		464.07,276.02 464.51,275.44 367.6,204.92 477.12,185.8 570.06,257.52 687.17,237.08 687.6,236.49 590.7,165.97 700.21,146.85 
		793.15,218.57 910.26,198.13 910.69,197.55 813.79,127.03 923.3,107.91 1016.24,179.63 1133.35,159.19 1133.79,158.6 
		1036.88,88.08 1146.4,68.96 1239.33,140.68 1272.45,134.9 1255.95,16.09 	"/>
	<path class="st0" d="M1252.4,314.56l1.02,1.48l-82.05,115.64h-110.84l86.07-116.42l-0.51-0.71h-119.48l1.02,1.48l-82.05,115.64
		H834.75l86.07-116.42l-0.51-0.71H800.84l1.02,1.48l-82.05,115.64H608.97l86.07-116.42l-0.51-0.71H575.06l1.02,1.48l-82.05,115.64
		H383.19l86.07-116.42l-0.51-0.71H349.28l1.02,1.48l-82.05,115.64H157.41l86.07-116.42l-0.51-0.71H89.81v690.19
		c0,20.02,10.49,36.25,23.43,36.25h1149.18c12.94,0,23.43-16.23,23.43-36.25V314.56H1252.4z"/>
</g>
<g id="Layer_2">
</g>
</svg>
