<svg id="Layer_1" data-name="Layer 1" xmlns="http://www.w3.org/2000/svg" viewBox="0 0 1211.73 735.82"><defs><style>.cls-1{fill:#bfa10a;}</style></defs><polygon class="cls-1" points="0 184.03 16.5 290.01 166.84 266.6 167.28 266.08 70.38 203.17 179.89 186.12 272.83 250.09 389.94 231.86 390.37 231.34 293.47 168.43 402.98 151.38 495.92 215.35 613.03 197.12 613.46 196.6 516.56 133.69 626.08 116.64 719.01 180.62 836.12 162.38 836.56 161.86 739.65 98.95 849.17 81.9 942.1 145.88 1059.21 127.64 1059.65 127.12 962.74 64.21 1072.26 47.16 1165.19 111.14 1198.31 105.98 1181.81 0 0 184.03"/><path class="cls-1" d="M1252.4,282.32l1,1L1171.37,358H1060.53l86.07-75.25-.51-.46H1026.62l1,1-82,74.75H834.75l86.07-75.25-.51-.46H800.84l1,1-82,74.75H609L695,282.78l-.51-.46H575.06l1,1L494,358H383.19l86.07-75.25-.51-.46H349.28l1,1-82,74.75H157.41l86.07-75.25-.51-.46H89.81V728.47a23.43,23.43,0,0,0,23.44,23.44H1262.43a23.43,23.43,0,0,0,23.43-23.44V282.32Z" transform="translate(-74.14 -16.09)"/></svg>