<?xml version="1.0" encoding="utf-8"?>
<!-- Generator: Adobe Illustrator 24.0.1, SVG Export Plug-In . SVG Version: 6.00 Build 0)  -->
<svg version="1.1" xmlns="http://www.w3.org/2000/svg" xmlns:xlink="http://www.w3.org/1999/xlink" x="0px" y="0px"
	 viewBox="0 0 800 800" style="enable-background:new 0 0 800 800;" xml:space="preserve">
<style type="text/css">
	.st0{clip-path:url(#SVGID_2_);}
	.st1{fill:#BFA10A;}
	.st2{clip-path:url(#SVGID_4_);}
	.st3{fill:#020126;stroke:#FCF9E9;stroke-width:2;stroke-miterlimit:10;}
	.st4{fill:none;}
	.st5{font-family:'Assistant-Regular';}
	.st6{font-size:14px;}
	.st7{font-size:16px;}
</style>
<g id="Layer_1">
	<g id="Layer_1_1_">
		<g id="Background">
		</g>
		<g id="Objects">
			<g>
				<g>
					<g>
						<g>
							<defs>
								<path id="SVGID_1_" d="M581.8,599.6l-349.5-1.1c-10.6,0-19.1-8.6-19.1-19.2l1-327.9l395,1.2l-1,320.7
									C608.2,587.9,596.3,599.6,581.8,599.6z"/>
							</defs>
							<clipPath id="SVGID_2_">
								<use xlink:href="#SVGID_1_"  style="overflow:visible;"/>
							</clipPath>
							<g id="movie" class="st0">
								<path class="st1" d="M560.6,302.3l-49-0.1l49.4-49.3l-48.6-50l-69.1-0.2l49.3,49.6L441.8,302l-58.6-0.2l50.5-49.3l-49.6-50
									l-70.2-0.2l49.3,49.6l-50.8,49.7l-49.7-0.2l50.5-49.3l-49.7-50l-49.8-0.2l-1.2,397l397,1.2l1.2-397L562,203l48.5,49.8
									L560.6,302.3z M560.1,549.9L262.4,549l0.1-49.6l297.7,0.9L560.1,549.9z M560.2,519.2l-297.7-0.9l0.1-30.6l297.7,0.9
									L560.2,519.2z"/>
							</g>
						</g>
					</g>
				</g>
				<g>
					<g>
						<g>
							<defs>
								
									<rect id="SVGID_3_" x="189.4" y="129.1" transform="matrix(0.9187 -0.395 0.395 0.9187 -29.093 165.9135)" width="398" height="49"/>
							</defs>
							<clipPath id="SVGID_4_">
								<use xlink:href="#SVGID_3_"  style="overflow:visible;"/>
							</clipPath>
							<g id="movie_1_" class="st2">
								<path class="st1" d="M554.6,164l-45,19.3l25.7-64.9L470.9,92l-63.4,27.3l65,25.9l-26.9,65.7L391.8,234l26.7-65.3l-65.4-26.1
									l-64.5,27.7l64.9,25.9L326.6,262l-45.7,19.6l26.8-65.3l-65.4-26.1l-45.8,19.7l156.8,364.7L718,417.8L561.2,53.1l-44.7,19.2
									l64.3,26.4L554.6,164z M652.6,391.4L379.1,509l-19.6-45.6L633,345.8L652.6,391.4z M613.7,300.7L340.1,418.3l-19.6-45.6
									L594,255.1L613.7,300.7z"/>
							</g>
						</g>
					</g>
				</g>
				<rect x="260.6" y="487.6" class="st1" width="307.8" height="62.2"/>
			</g>
		</g>
	</g>
	<g id="submit_x5F_btn">
		<g>
			<path class="st3" d="M523.7,584.7H478c-6.7,0-12.1-5.4-12.1-12.1v-2.9c0-6.7,5.4-12.1,12.1-12.1h45.7c6.7,0,12.1,5.4,12.1,12.1
				v2.9C535.8,579.3,530.3,584.7,523.7,584.7z"/>
			<rect x="477.7" y="565.2" class="st4" width="46.2" height="13.7"/>
			<text transform="matrix(1 0 0 1 477.6803 575.2361)" class="st1 st5 st6">SUBMIT</text>
		</g>
	</g>
	<g id="Layer_2_1_">
		<rect x="306.2" y="389.5" class="st3" width="229.6" height="25.7"/>
		<rect x="306.2" y="429.8" class="st3" width="229.6" height="25.7"/>
		<rect x="306.2" y="471.8" class="st3" width="229.6" height="74.7"/>
		<rect x="231.7" y="389.2" class="st4" width="67.7" height="27"/>
	</g>
	<g id="Layer_5">
	</g>
	<g id="Layer_3">
	</g>
</g>
<g id="Layer_2">
	<text transform="matrix(1 0 0 1 226.7256 406.2148)" class="st5 st7">First Name</text>
	<text transform="matrix(1 0 0 1 226.7256 446.65)" class="st5 st7">Last Name</text>
	<text transform="matrix(1 0 0 1 226.7256 510.1496)" class="st5 st7">Message</text>
</g>
</svg>
