<svg id="Layer_1" data-name="Layer 1" xmlns="http://www.w3.org/2000/svg" xmlns:xlink="http://www.w3.org/1999/xlink" viewBox="0 0 753.51 790.35"><defs><style>.cls-1{fill:none;}.cls-2{clip-path:url(#clip-path);}.cls-3{fill:#bfa10a;}.cls-4{clip-path:url(#clip-path-2);}</style><clipPath id="clip-path" transform="translate(-95.77 -5.62)"><path class="cls-1" d="M652.48,795.25l-505-1.59a27.62,27.62,0,0,1-27.59-27.74l1.44-473.78,570.73,1.74-1.44,463.37A38.08,38.08,0,0,1,652.48,795.25Z"/></clipPath><clipPath id="clip-path-2" transform="translate(-95.77 -5.62)"><rect class="cls-1" x="85.5" y="115.44" width="575.07" height="70.8" transform="translate(-29.25 159.62) rotate(-23.27)"/></clipPath></defs><g id="Layer_1-2" data-name="Layer 1"><g id="Layer_1-3" data-name="Layer 1"><g id="Objects"><g class="cls-2"><g id="movie"><path class="cls-3" d="M621.85,365.69l-70.8-.15,71.38-71.23-70.22-72.24-99.85-.29,71.24,71.66-73.4,71.81L365.53,365l73-71.24-71.66-72.24L265.4,221.2l71.23,71.67-73.4,71.81-71.81-.29,73-71.24-71.81-72.24-71.95-.29-1.74,573.62L692.5,796l1.74-573.62-70.37-.15,70.08,72Zm-.72,357.75L191,722.14l.15-71.66,430.14,1.3Zm.14-44.36-430.14-1.3.14-44.21,430.15,1.3Z" transform="translate(-95.77 -5.62)"/></g></g><g class="cls-4"><g id="movie-2" data-name="movie"><path class="cls-3" d="M613.18,165.86l-65,27.89L585.29,100l-93-38.14-91.6,39.44,93.91,37.43-38.86,94.93L378,267l38.58-94.35L322,134.94l-93.19,40,93.77,37.43-38.86,95.07-66,28.32,38.73-94.35-94.5-37.71L95.77,232.18l226.55,527,527-226.56L622.72,5.62,558.13,33.36,651,71.51Zm141.6,328.57L359.6,664.35l-28.32-65.89L726.46,428.54Zm-56.21-131L303.25,533.29l-28.32-65.88L670.11,297.49Z" transform="translate(-95.77 -5.62)"/></g></g><rect class="cls-3" x="92.62" y="627.8" width="444.74" height="89.87"/></g></g></g></svg>